<?xml version="1.0" encoding="iso-8859-1"?>
<!-- Uploaded to: SVG Repo, www.svgrepo.com, Generator: SVG Repo Mixer Tools -->
<svg height="800px" width="800px" version="1.1" id="Layer_1" xmlns="http://www.w3.org/2000/svg" xmlns:xlink="http://www.w3.org/1999/xlink" 
	 viewBox="0 0 512 512" xml:space="preserve">
<polygon style="fill:#FF648D;" points="442.062,243.314 442.991,146.921 69.008,146.921 69.938,243.314 0,301.373 0,461.86 
	512,461.86 512,301.373 "/>
<polygon style="fill:#FD387E;" points="442.062,243.314 442.991,146.921 255.999,146.921 256,461.86 512,461.86 512,301.373 "/>
<path style="fill:#88DEE0;" d="M256,174.289h108.489l-0.003,38.882c-0.001,16.982,13.764,30.748,30.745,30.75l82.056,0.007
	c16.981,0.001,30.748-13.763,30.749-30.744l0.003-47.167C508.045,88.667,334.47,50.147,255.502,50.14h0.994
	C177.529,50.145,3.954,88.666,3.96,166.015l0.003,47.167c0.001,16.981,13.768,30.746,30.749,30.744l82.056-0.007
	c16.981-0.001,30.746-13.768,30.744-30.75l-0.003-38.882H256z"/>
<path style="fill:#10C7C5;" d="M256,174.289h108.489l-0.003,38.882c-0.001,16.982,13.764,30.748,30.745,30.75l82.056,0.007
	c16.981,0.001,30.748-13.763,30.749-30.744l0.003-47.167C508.045,88.667,334.47,50.147,255.502,50.14h0.994
	C256.496,100.173,256,174.289,256,174.289z"/>
<circle style="fill:#EBECEC;" cx="256" cy="324.452" r="92.939"/>
<path style="fill:#CACDCD;" d="M348.939,324.452c0,51.329-41.61,92.939-92.939,92.939c0-66.783,0-116.87,0-185.878
	C307.329,231.512,348.939,273.122,348.939,324.452z"/>
</svg>